<svg width="103" height="34" viewBox="0 0 103 34" fill="none" xmlns="http://www.w3.org/2000/svg">
<path d="M37.2161 6.37163L32.207 1.36253C31.9721 1.12755 31.6534 0.995544 31.3211 0.995544C30.9887 0.995544 30.67 1.12755 30.4351 1.36253C30.2001 1.59751 30.0681 1.91621 30.0681 2.24851C30.0681 2.58082 30.2001 2.89952 30.4351 3.1345L33.3075 6.00534H28.8165C27.2823 6.06094 25.7742 6.41894 24.3788 7.05881C22.2468 8.04341 19.5528 10.1441 18.8155 14.5725C17.9828 19.5722 14.2604 20.7117 12.3976 20.9684C12.0692 19.4524 11.1897 18.1122 9.92947 17.2076C8.66928 16.303 7.11817 15.8984 5.57669 16.0722C4.03522 16.246 2.61313 16.9858 1.58601 18.1483C0.558886 19.3108 -0.000145864 20.8132 0.0172393 22.3643C0.0346245 23.9155 0.62719 25.405 1.68011 26.5441C2.73303 27.6833 4.17134 28.3911 5.71632 28.5303C7.26131 28.6695 8.80296 28.2302 10.0426 27.2976C11.2822 26.365 12.1314 25.0054 12.4258 23.4824C13.5516 23.3541 14.6515 23.0559 15.688 22.598C17.82 21.6588 20.5202 19.5612 21.2856 14.9763C22.3438 8.63042 28.5567 8.50988 28.8165 8.50988H33.3075L30.4351 11.3807C30.2001 11.6157 30.0681 11.9344 30.0681 12.2667C30.0681 12.599 30.2001 12.9177 30.4351 13.1527C30.67 13.3877 30.9887 13.5197 31.3211 13.5197C31.6534 13.5197 31.9721 13.3877 32.207 13.1527L37.2161 8.1436C37.3326 8.02729 37.4249 7.88918 37.488 7.73716C37.551 7.58513 37.5834 7.42218 37.5834 7.25761C37.5834 7.09304 37.551 6.93009 37.488 6.77806C37.4249 6.62604 37.3326 6.48793 37.2161 6.37163ZM6.27558 26.0417C5.53255 26.0417 4.8062 25.8214 4.1884 25.4086C3.57059 24.9958 3.08907 24.409 2.80473 23.7226C2.52038 23.0361 2.44598 22.2807 2.59094 21.552C2.7359 20.8232 3.0937 20.1538 3.6191 19.6284C4.1445 19.103 4.8139 18.7452 5.54266 18.6003C6.27141 18.4553 7.02678 18.5297 7.71325 18.814C8.39972 19.0984 8.98645 19.5799 9.39926 20.1977C9.81206 20.8155 10.0324 21.5419 10.0324 22.2849C10.0324 23.2813 9.63659 24.2368 8.93205 24.9414C8.22751 25.6459 7.27195 26.0417 6.27558 26.0417Z" fill="#EA412B"/>
<path d="M40.4624 14.2372V1.72773H42.7758L46.5629 6.98856L50.5043 1.72773H52.7148V14.2372H50.3843V5.46343L46.5458 10.6386L42.7929 5.54911V14.2372H40.4624Z" fill="#FCFCFD"/>
<path d="M58.6928 14.4428C56.2766 14.4428 53.7576 12.5236 53.7576 9.2334C53.7576 5.90897 56.1909 4.00685 58.7271 4.00685C60.0466 4.00685 61.2119 4.53807 61.9487 5.41202V4.21249H64.2621V14.2372H61.9487V12.9348C61.2119 13.8773 60.0123 14.4428 58.6928 14.4428ZM59.0698 12.3179C60.8006 12.3179 62.0687 10.9299 62.0687 9.19913C62.0687 7.48551 60.8006 6.11461 59.0698 6.11461C57.3562 6.11461 56.0367 7.46837 56.0367 9.19913C56.0367 10.947 57.3562 12.3179 59.0698 12.3179Z" fill="#FCFCFD"/>
<path d="M65.6635 14.2372V4.21249H67.9598V5.70334C68.4225 4.70944 69.2793 4.21249 70.5302 4.21249C71.2671 4.21249 71.8326 4.38385 72.2952 4.64089L71.4213 6.83433C71.0786 6.61156 70.7016 6.4402 70.0333 6.4402C68.6795 6.4402 67.9769 7.15992 67.9769 8.89068V14.2372H65.6635Z" fill="#FCFCFD"/>
<path d="M77.5926 14.4428C74.6623 14.4428 72.3832 12.1123 72.3832 9.2334C72.3832 6.30311 74.6623 4.00685 77.5926 4.00685C79.8375 4.00685 81.6025 5.29207 82.3736 7.10851L80.3001 7.98246C79.8375 6.88574 78.8436 6.18315 77.6098 6.18315C75.9133 6.18315 74.6452 7.53691 74.6452 9.2334C74.6452 10.8956 75.9133 12.2665 77.6269 12.2665C78.9292 12.2665 79.8717 11.4954 80.3344 10.3987L82.4079 11.2898C81.6196 13.1405 79.9231 14.4428 77.5926 14.4428Z" fill="#FCFCFD"/>
<path d="M88.0681 14.4428C85.1721 14.4428 82.8758 12.1123 82.8758 9.2334C82.8758 6.30311 85.1721 4.00685 88.0681 4.00685C90.947 4.00685 93.2604 6.30311 93.2604 9.2334C93.2604 12.1123 90.947 14.4428 88.0681 14.4428ZM88.0681 12.2665C89.7132 12.2665 90.9812 10.8956 90.9812 9.2334C90.9812 7.53691 89.7132 6.18315 88.0681 6.18315C86.4059 6.18315 85.1549 7.53691 85.1549 9.2334C85.1549 10.8956 86.4059 12.2665 88.0681 12.2665Z" fill="#FCFCFD"/>
<path d="M98.0497 14.4428C95.8048 14.4428 94.3997 13.586 93.5942 12.0095L95.7363 10.9813C96.2161 11.9238 97.0558 12.4379 98.1525 12.4379C99.3006 12.4379 99.8661 11.8895 99.8661 11.2212C99.8661 10.4843 98.7523 10.3473 97.5184 10.0731C95.8048 9.71322 94.0055 9.16486 94.0055 7.0571C94.0055 5.4463 95.5649 3.98972 97.9468 3.98972C99.9861 3.98972 101.271 4.77798 102.042 6.0632L100.072 7.0571C99.6605 6.35452 98.9065 5.90897 97.9468 5.90897C96.8501 5.90897 96.336 6.42306 96.336 6.98856C96.336 7.65687 97.1243 7.82823 98.6323 8.15382C100.277 8.47941 102.162 9.06204 102.162 11.1698C102.162 12.575 100.911 14.4428 98.0497 14.4428Z" fill="#FCFCFD"/>
<path d="M30.1037 28.5174V16.0079H32.4342V26.2897H37.0096V28.5174H30.1037Z" fill="#FCFCFD"/>
<path d="M42.9181 28.723C40.0221 28.723 37.7258 26.3925 37.7258 23.5136C37.7258 20.5833 40.0221 18.287 42.9181 18.287C45.797 18.287 48.1104 20.5833 48.1104 23.5136C48.1104 26.3925 45.797 28.723 42.9181 28.723ZM42.9181 26.5467C44.5632 26.5467 45.8313 25.1758 45.8313 23.5136C45.8313 21.8171 44.5632 20.4633 42.9181 20.4633C41.2559 20.4633 40.005 21.8171 40.005 23.5136C40.005 25.1758 41.2559 26.5467 42.9181 26.5467Z" fill="#FCFCFD"/>
<path d="M57.0961 28.346V27.1807C56.3592 28.1404 55.1768 28.723 53.8231 28.723C51.4068 28.723 48.8878 26.8037 48.8878 23.5136C48.8878 20.1892 51.3212 18.287 53.8573 18.287C55.1768 18.287 56.3421 18.8697 57.0789 19.7779V18.4927H59.3923V28.2603C59.3923 31.0707 57.593 33.3669 54.2172 33.3669C51.6125 33.3669 49.9845 32.1503 49.0763 30.488L51.1327 29.2371C51.8695 30.5909 52.6578 31.242 54.2515 31.242C55.9994 31.242 57.0961 29.8711 57.0961 28.346ZM54.2001 26.5981C55.9308 26.5981 57.1989 25.2101 57.1989 23.4793C57.1989 21.7657 55.9308 20.3948 54.2001 20.3948C52.4864 20.3948 51.1669 21.7486 51.1669 23.4793C51.1669 25.2272 52.4864 26.5981 54.2001 26.5981Z" fill="#FCFCFD"/>
<path d="M60.6599 28.5174V18.4927H62.9904V28.5174H60.6599ZM60.3686 16.0422C60.3686 15.1682 60.9341 14.5856 61.8251 14.5856C62.7334 14.5856 63.2817 15.1682 63.2817 16.0422C63.2817 16.9161 62.7334 17.4816 61.8251 17.4816C60.8827 17.4816 60.3686 16.9161 60.3686 16.0422Z" fill="#FCFCFD"/>
<path d="M68.0947 28.723C65.8499 28.723 64.4447 27.8662 63.6393 26.2897L65.7813 25.2615C66.2612 26.204 67.1008 26.7181 68.1975 26.7181C69.3457 26.7181 69.9112 26.1697 69.9112 25.5014C69.9112 24.7645 68.7973 24.6274 67.5635 24.3533C65.8499 23.9934 64.0506 23.445 64.0506 21.3373C64.0506 19.7265 65.61 18.2699 67.9919 18.2699C70.0311 18.2699 71.3163 19.0582 72.0875 20.3434L70.1168 21.3373C69.7055 20.6347 68.9515 20.1892 67.9919 20.1892C66.8952 20.1892 66.3811 20.7033 66.3811 21.2687C66.3811 21.9371 67.1694 22.1084 68.6774 22.434C70.3224 22.7596 72.2074 23.3422 72.2074 25.45C72.2074 26.8552 70.9565 28.723 68.0947 28.723Z" fill="#FCFCFD"/>
<path d="M72.6669 20.5662V18.4927H74.3805V16.9676L76.711 15.3739V18.4927H78.7503V20.5662H76.711V24.319C76.711 26.0669 76.9681 26.3411 78.7503 26.3411V28.5174H78.4247C75.323 28.5174 74.3805 27.5235 74.3805 24.3361V20.5662H72.6669Z" fill="#FCFCFD"/>
<path d="M79.8712 28.5174V18.4927H82.2017V28.5174H79.8712ZM79.5799 16.0422C79.5799 15.1682 80.1454 14.5856 81.0365 14.5856C81.9447 14.5856 82.493 15.1682 82.493 16.0422C82.493 16.9161 81.9447 17.4816 81.0365 17.4816C80.094 17.4816 79.5799 16.9161 79.5799 16.0422Z" fill="#FCFCFD"/>
<path d="M88.4199 28.723C85.4896 28.723 83.2105 26.3925 83.2105 23.5136C83.2105 20.5833 85.4896 18.287 88.4199 18.287C90.6648 18.287 92.4298 19.5723 93.2009 21.3887L91.1274 22.2626C90.6648 21.1659 89.6709 20.4633 88.437 20.4633C86.7406 20.4633 85.4725 21.8171 85.4725 23.5136C85.4725 25.1758 86.7406 26.5467 88.4542 26.5467C89.7565 26.5467 90.699 25.7756 91.1617 24.6789L93.2352 25.5699C92.4469 27.4207 90.7504 28.723 88.4199 28.723Z" fill="#FCFCFD"/>
<path d="M98.0497 28.723C95.8048 28.723 94.3997 27.8662 93.5942 26.2897L95.7363 25.2615C96.2161 26.204 97.0558 26.7181 98.1525 26.7181C99.3006 26.7181 99.8661 26.1697 99.8661 25.5014C99.8661 24.7645 98.7523 24.6274 97.5184 24.3533C95.8048 23.9934 94.0055 23.445 94.0055 21.3373C94.0055 19.7265 95.5649 18.2699 97.9468 18.2699C99.9861 18.2699 101.271 19.0582 102.042 20.3434L100.072 21.3373C99.6605 20.6347 98.9065 20.1892 97.9468 20.1892C96.8501 20.1892 96.336 20.7033 96.336 21.2687C96.336 21.9371 97.1243 22.1084 98.6323 22.434C100.277 22.7596 102.162 23.3422 102.162 25.45C102.162 26.8552 100.911 28.723 98.0497 28.723Z" fill="#FCFCFD"/>
</svg>
