<svg width="24" height="24" viewBox="0 0 24 24" fill="none" xmlns="http://www.w3.org/2000/svg">
<rect width="24" height="24" rx="12" fill="#F2F4F5"/>
<g clip-path="url(#clip0_30_1007)">
<path fill-rule="evenodd" clip-rule="evenodd" d="M7.71108 6.37225C8.46413 5.61921 9.70955 5.70772 10.3485 6.55969L11.4092 7.9739C11.9317 8.67061 11.8624 9.64552 11.2466 10.2613L10.4646 11.0433C10.5404 11.2406 10.7899 11.6735 11.5496 12.4332C12.3094 13.1929 12.7422 13.4424 12.9395 13.5182L13.7215 12.7362C14.3373 12.1204 15.3122 12.0511 16.0089 12.5736L17.4231 13.6343C18.2751 14.2733 18.3636 15.5187 17.6106 16.2717C17.3658 16.5166 17.3243 16.558 16.9158 16.9666C16.4994 17.383 15.6152 17.7721 14.7201 17.8111C13.3193 17.872 11.4166 17.25 9.07475 14.9081C6.73285 12.5662 6.11087 10.6635 6.17177 9.26272C6.20565 8.4835 6.45339 7.62767 7.01953 7.07032C7.42483 6.6585 7.47754 6.60579 7.71108 6.37225ZM7.33734 9.31339C7.29512 10.2844 7.70433 11.8877 9.89971 14.0831C12.0951 16.2785 13.6985 16.6877 14.6694 16.6455C15.5759 16.6061 16.0621 16.1681 16.0908 16.1416L16.7856 15.4468C17.0366 15.1958 17.0071 14.7806 16.7231 14.5676L15.3089 13.507C15.0767 13.3328 14.7517 13.3559 14.5464 13.5612C14.2372 13.8704 14.0261 14.0847 13.6128 14.4964C12.7544 15.3516 11.2849 13.8184 10.7247 13.2582C10.2098 12.7433 8.64086 11.2272 9.48561 10.3724C9.48728 10.3708 9.71481 10.1432 10.4217 9.43638C10.6269 9.23111 10.65 8.90614 10.4758 8.6739L9.41519 7.25969C9.2022 6.9757 8.78705 6.94619 8.53604 7.19721C8.30501 7.42824 8.04355 7.6897 7.84193 7.89272C7.42696 8.31055 7.35954 8.80263 7.33734 9.31339Z" fill="#FCFCFD"/>
</g>
<defs>
<clipPath id="clip0_30_1007">
<rect width="14" height="14" fill="white" transform="translate(5 5)"/>
</clipPath>
</defs>
</svg>
