<svg width="103" height="34" viewBox="0 0 103 34" fill="none" xmlns="http://www.w3.org/2000/svg">
<path d="M37.2159 6.37169L32.2068 1.36259C31.9718 1.12761 31.6531 0.995605 31.3208 0.995605C30.9885 0.995605 30.6698 1.12761 30.4348 1.36259C30.1999 1.59757 30.0678 1.91627 30.0678 2.24858C30.0678 2.58088 30.1999 2.89958 30.4348 3.13456L33.3072 6.0054H28.8163C27.2821 6.061 25.774 6.419 24.3785 7.05887C22.2465 8.04347 19.5526 10.1442 18.8153 14.5725C17.9825 19.5722 14.2601 20.7118 12.3974 20.9685C12.0689 19.4524 11.1894 18.1123 9.92923 17.2077C8.66904 16.3031 7.11793 15.8985 5.57645 16.0723C4.03497 16.2461 2.61289 16.9859 1.58577 18.1484C0.558642 19.3109 -0.000390004 20.8132 0.0169952 22.3644C0.0343804 23.9155 0.626945 25.405 1.67987 26.5442C2.73279 27.6834 4.17109 28.3911 5.71608 28.5303C7.26106 28.6695 8.80272 28.2303 10.0423 27.2977C11.2819 26.3651 12.1312 25.0055 12.4256 23.4824C13.5514 23.3541 14.6513 23.0559 15.6877 22.598C17.8197 21.6588 20.5199 19.5613 21.2854 14.9764C22.3436 8.63048 28.5564 8.50995 28.8163 8.50995H33.3072L30.4348 11.3808C30.1999 11.6158 30.0678 11.9345 30.0678 12.2668C30.0678 12.5991 30.1999 12.9178 30.4348 13.1528C30.6698 13.3877 30.9885 13.5197 31.3208 13.5197C31.6531 13.5197 31.9718 13.3877 32.2068 13.1528L37.2159 8.14366C37.3323 8.02735 37.4247 7.88924 37.4877 7.73722C37.5507 7.58519 37.5832 7.42224 37.5832 7.25767C37.5832 7.0931 37.5507 6.93015 37.4877 6.77813C37.4247 6.6261 37.3323 6.48799 37.2159 6.37169ZM6.27533 26.0418C5.5323 26.0418 4.80596 25.8214 4.18815 25.4086C3.57035 24.9958 3.08883 24.4091 2.80448 23.7226C2.52014 23.0362 2.44574 22.2808 2.5907 21.552C2.73565 20.8233 3.09346 20.1539 3.61886 19.6285C4.14426 19.1031 4.81366 18.7453 5.54241 18.6003C6.27116 18.4554 7.02654 18.5298 7.71301 18.8141C8.39948 19.0985 8.98621 19.58 9.39902 20.1978C9.81182 20.8156 10.0322 21.5419 10.0322 22.285C10.0322 23.2813 9.63635 24.2369 8.93181 24.9414C8.22727 25.646 7.2717 26.0418 6.27533 26.0418Z" fill="#EA412B"/>
<path d="M40.4622 14.2372V1.72778H42.7756L46.5627 6.98861L50.5041 1.72778H52.7146V14.2372H50.3841V5.46348L46.5456 10.6386L42.7928 5.54916V14.2372H40.4622Z" fill="black"/>
<path d="M58.6926 14.4429C56.2764 14.4429 53.7574 12.5236 53.7574 9.23345C53.7574 5.90902 56.1908 4.0069 58.7269 4.0069C60.0464 4.0069 61.2117 4.53812 61.9485 5.41207V4.21254H64.2619V14.2372H61.9485V12.9349C61.2117 13.8774 60.0121 14.4429 58.6926 14.4429ZM59.0696 12.318C60.8004 12.318 62.0685 10.9299 62.0685 9.19918C62.0685 7.48556 60.8004 6.11466 59.0696 6.11466C57.356 6.11466 56.0365 7.46842 56.0365 9.19918C56.0365 10.9471 57.356 12.318 59.0696 12.318Z" fill="black"/>
<path d="M65.6633 14.2372V4.21254H67.9596V5.70339C68.4223 4.70949 69.2791 4.21254 70.53 4.21254C71.2669 4.21254 71.8324 4.3839 72.2951 4.64094L71.4211 6.83438C71.0784 6.61161 70.7014 6.44025 70.0331 6.44025C68.6793 6.44025 67.9767 7.15997 67.9767 8.89073V14.2372H65.6633Z" fill="black"/>
<path d="M77.5924 14.4429C74.6621 14.4429 72.383 12.1123 72.383 9.23345C72.383 6.30316 74.6621 4.0069 77.5924 4.0069C79.8373 4.0069 81.6023 5.29212 82.3734 7.10856L80.3 7.98251C79.8373 6.88579 78.8434 6.1832 77.6096 6.1832C75.9131 6.1832 74.645 7.53696 74.645 9.23345C74.645 10.8957 75.9131 12.2666 77.6267 12.2666C78.9291 12.2666 79.8716 11.4954 80.3342 10.3987L82.4077 11.2898C81.6194 13.1405 79.923 14.4429 77.5924 14.4429Z" fill="black"/>
<path d="M88.0679 14.4429C85.1719 14.4429 82.8756 12.1123 82.8756 9.23345C82.8756 6.30316 85.1719 4.0069 88.0679 4.0069C90.9468 4.0069 93.2602 6.30316 93.2602 9.23345C93.2602 12.1123 90.9468 14.4429 88.0679 14.4429ZM88.0679 12.2666C89.713 12.2666 90.9811 10.8957 90.9811 9.23345C90.9811 7.53696 89.713 6.1832 88.0679 6.1832C86.4057 6.1832 85.1547 7.53696 85.1547 9.23345C85.1547 10.8957 86.4057 12.2666 88.0679 12.2666Z" fill="black"/>
<path d="M98.0495 14.4429C95.8046 14.4429 94.3995 13.5861 93.5941 12.0095L95.7361 10.9813C96.2159 11.9238 97.0556 12.4379 98.1523 12.4379C99.3004 12.4379 99.8659 11.8896 99.8659 11.2213C99.8659 10.4844 98.7521 10.3473 97.5183 10.0731C95.8046 9.71327 94.0053 9.16491 94.0053 7.05715C94.0053 5.44634 95.5647 3.98976 97.9467 3.98976C99.9859 3.98976 101.271 4.77803 102.042 6.06325L100.072 7.05715C99.6603 6.35457 98.9063 5.90902 97.9467 5.90902C96.8499 5.90902 96.3359 6.42311 96.3359 6.98861C96.3359 7.65692 97.1241 7.82828 98.6321 8.15387C100.277 8.47946 102.162 9.06209 102.162 11.1698C102.162 12.575 100.911 14.4429 98.0495 14.4429Z" fill="black"/>
<path d="M30.1035 28.5174V16.008H32.434V26.2897H37.0094V28.5174H30.1035Z" fill="black"/>
<path d="M42.9179 28.7231C40.0219 28.7231 37.7257 26.3925 37.7257 23.5136C37.7257 20.5833 40.0219 18.2871 42.9179 18.2871C45.7968 18.2871 48.1102 20.5833 48.1102 23.5136C48.1102 26.3925 45.7968 28.7231 42.9179 28.7231ZM42.9179 26.5468C44.563 26.5468 45.8311 25.1759 45.8311 23.5136C45.8311 21.8172 44.563 20.4634 42.9179 20.4634C41.2557 20.4634 40.0048 21.8172 40.0048 23.5136C40.0048 25.1759 41.2557 26.5468 42.9179 26.5468Z" fill="black"/>
<path d="M57.0959 28.3461V27.1808C56.359 28.1404 55.1766 28.7231 53.8229 28.7231C51.4067 28.7231 48.8876 26.8038 48.8876 23.5136C48.8876 20.1892 51.321 18.2871 53.8571 18.2871C55.1766 18.2871 56.3419 18.8697 57.0788 19.7779V18.4927H59.3922V28.2604C59.3922 31.0707 57.5928 33.367 54.217 33.367C51.6123 33.367 49.9844 32.1503 49.0761 30.4881L51.1325 29.2371C51.8693 30.5909 52.6576 31.2421 54.2513 31.2421C55.9992 31.2421 57.0959 29.8712 57.0959 28.3461ZM54.1999 26.5982C55.9306 26.5982 57.1987 25.2101 57.1987 23.4794C57.1987 21.7657 55.9306 20.3948 54.1999 20.3948C52.4862 20.3948 51.1668 21.7486 51.1668 23.4794C51.1668 25.2273 52.4862 26.5982 54.1999 26.5982Z" fill="black"/>
<path d="M60.6597 28.5174V18.4927H62.9902V28.5174H60.6597ZM60.3684 16.0422C60.3684 15.1683 60.9339 14.5857 61.825 14.5857C62.7332 14.5857 63.2815 15.1683 63.2815 16.0422C63.2815 16.9162 62.7332 17.4817 61.825 17.4817C60.8825 17.4817 60.3684 16.9162 60.3684 16.0422Z" fill="black"/>
<path d="M68.0945 28.7231C65.8497 28.7231 64.4445 27.8662 63.6391 26.2897L65.7812 25.2615C66.261 26.204 67.1006 26.7181 68.1974 26.7181C69.3455 26.7181 69.911 26.1698 69.911 25.5014C69.911 24.7646 68.7971 24.6275 67.5633 24.3533C65.8497 23.9935 64.0504 23.4451 64.0504 21.3373C64.0504 19.7265 65.6098 18.27 67.9917 18.27C70.0309 18.27 71.3162 19.0582 72.0873 20.3434L70.1166 21.3373C69.7053 20.6348 68.9514 20.1892 67.9917 20.1892C66.895 20.1892 66.3809 20.7033 66.3809 21.2688C66.3809 21.9371 67.1692 22.1085 68.6772 22.4341C70.3223 22.7596 72.2072 23.3423 72.2072 25.45C72.2072 26.8552 70.9563 28.7231 68.0945 28.7231Z" fill="black"/>
<path d="M72.6667 20.5662V18.4927H74.3803V16.9676L76.7109 15.3739V18.4927H78.7501V20.5662H76.7109V24.319C76.7109 26.0669 76.9679 26.3411 78.7501 26.3411V28.5174H78.4245C75.3228 28.5174 74.3803 27.5235 74.3803 24.3362V20.5662H72.6667Z" fill="black"/>
<path d="M79.871 28.5174V18.4927H82.2015V28.5174H79.871ZM79.5797 16.0422C79.5797 15.1683 80.1452 14.5857 81.0363 14.5857C81.9445 14.5857 82.4929 15.1683 82.4929 16.0422C82.4929 16.9162 81.9445 17.4817 81.0363 17.4817C80.0938 17.4817 79.5797 16.9162 79.5797 16.0422Z" fill="black"/>
<path d="M88.4197 28.7231C85.4894 28.7231 83.2103 26.3925 83.2103 23.5136C83.2103 20.5833 85.4894 18.2871 88.4197 18.2871C90.6646 18.2871 92.4296 19.5723 93.2007 21.3888L91.1272 22.2627C90.6646 21.166 89.6707 20.4634 88.4369 20.4634C86.7404 20.4634 85.4723 21.8172 85.4723 23.5136C85.4723 25.1759 86.7404 26.5468 88.454 26.5468C89.7563 26.5468 90.6988 25.7756 91.1615 24.6789L93.235 25.57C92.4467 27.4207 90.7503 28.7231 88.4197 28.7231Z" fill="black"/>
<path d="M98.0495 28.7231C95.8046 28.7231 94.3995 27.8662 93.5941 26.2897L95.7361 25.2615C96.2159 26.204 97.0556 26.7181 98.1523 26.7181C99.3004 26.7181 99.8659 26.1698 99.8659 25.5014C99.8659 24.7646 98.7521 24.6275 97.5183 24.3533C95.8046 23.9935 94.0053 23.4451 94.0053 21.3373C94.0053 19.7265 95.5647 18.27 97.9467 18.27C99.9859 18.27 101.271 19.0582 102.042 20.3434L100.072 21.3373C99.6603 20.6348 98.9063 20.1892 97.9467 20.1892C96.8499 20.1892 96.3359 20.7033 96.3359 21.2688C96.3359 21.9371 97.1241 22.1085 98.6321 22.4341C100.277 22.7596 102.162 23.3423 102.162 25.45C102.162 26.8552 100.911 28.7231 98.0495 28.7231Z" fill="black"/>
</svg>
