<svg width="103" height="34" viewBox="0 0 103 34" fill="none" xmlns="http://www.w3.org/2000/svg">
<path d="M37.2161 6.37169L32.207 1.36259C31.9721 1.12761 31.6534 0.995605 31.3211 0.995605C30.9887 0.995605 30.67 1.12761 30.4351 1.36259C30.2001 1.59757 30.0681 1.91627 30.0681 2.24858C30.0681 2.58088 30.2001 2.89958 30.4351 3.13456L33.3075 6.0054H28.8165C27.2823 6.061 25.7742 6.419 24.3788 7.05887C22.2468 8.04347 19.5528 10.1442 18.8155 14.5725C17.9828 19.5722 14.2604 20.7118 12.3976 20.9685C12.0692 19.4524 11.1897 18.1123 9.92947 17.2077C8.66928 16.3031 7.11817 15.8985 5.57669 16.0723C4.03522 16.2461 2.61313 16.9859 1.58601 18.1484C0.558886 19.3109 -0.000145864 20.8132 0.0172393 22.3644C0.0346245 23.9155 0.62719 25.405 1.68011 26.5442C2.73303 27.6834 4.17134 28.3911 5.71632 28.5303C7.26131 28.6695 8.80296 28.2303 10.0426 27.2977C11.2822 26.3651 12.1314 25.0055 12.4258 23.4824C13.5516 23.3541 14.6515 23.0559 15.688 22.598C17.82 21.6588 20.5202 19.5613 21.2856 14.9764C22.3438 8.63048 28.5567 8.50995 28.8165 8.50995H33.3075L30.4351 11.3808C30.2001 11.6158 30.0681 11.9345 30.0681 12.2668C30.0681 12.5991 30.2001 12.9178 30.4351 13.1528C30.67 13.3877 30.9887 13.5197 31.3211 13.5197C31.6534 13.5197 31.9721 13.3877 32.207 13.1528L37.2161 8.14366C37.3326 8.02735 37.4249 7.88924 37.488 7.73722C37.551 7.58519 37.5834 7.42224 37.5834 7.25767C37.5834 7.0931 37.551 6.93015 37.488 6.77813C37.4249 6.6261 37.3326 6.48799 37.2161 6.37169ZM6.27558 26.0418C5.53255 26.0418 4.8062 25.8214 4.1884 25.4086C3.57059 24.9958 3.08907 24.4091 2.80473 23.7226C2.52038 23.0362 2.44598 22.2808 2.59094 21.552C2.7359 20.8233 3.0937 20.1539 3.6191 19.6285C4.1445 19.1031 4.8139 18.7453 5.54266 18.6003C6.27141 18.4554 7.02678 18.5298 7.71325 18.8141C8.39972 19.0985 8.98645 19.58 9.39926 20.1978C9.81206 20.8156 10.0324 21.5419 10.0324 22.285C10.0324 23.2813 9.63659 24.2369 8.93205 24.9414C8.22751 25.646 7.27195 26.0418 6.27558 26.0418Z" fill="#EA412B"/>
<path d="M40.4624 14.2372V1.72778H42.7758L46.5629 6.98861L50.5043 1.72778H52.7148V14.2372H50.3843V5.46348L46.5458 10.6386L42.7929 5.54916V14.2372H40.4624Z" fill="#FCFCFD"/>
<path d="M58.6928 14.4429C56.2766 14.4429 53.7576 12.5236 53.7576 9.23345C53.7576 5.90902 56.1909 4.0069 58.7271 4.0069C60.0466 4.0069 61.2119 4.53812 61.9487 5.41207V4.21254H64.2621V14.2372H61.9487V12.9349C61.2119 13.8774 60.0123 14.4429 58.6928 14.4429ZM59.0698 12.318C60.8006 12.318 62.0687 10.9299 62.0687 9.19918C62.0687 7.48556 60.8006 6.11466 59.0698 6.11466C57.3562 6.11466 56.0367 7.46842 56.0367 9.19918C56.0367 10.9471 57.3562 12.318 59.0698 12.318Z" fill="#FCFCFD"/>
<path d="M65.6635 14.2372V4.21254H67.9598V5.70339C68.4225 4.70949 69.2793 4.21254 70.5302 4.21254C71.2671 4.21254 71.8326 4.3839 72.2952 4.64094L71.4213 6.83438C71.0786 6.61161 70.7016 6.44025 70.0333 6.44025C68.6795 6.44025 67.9769 7.15997 67.9769 8.89073V14.2372H65.6635Z" fill="#FCFCFD"/>
<path d="M77.5926 14.4429C74.6623 14.4429 72.3832 12.1123 72.3832 9.23345C72.3832 6.30316 74.6623 4.0069 77.5926 4.0069C79.8375 4.0069 81.6025 5.29212 82.3736 7.10856L80.3001 7.98251C79.8375 6.88579 78.8436 6.1832 77.6098 6.1832C75.9133 6.1832 74.6452 7.53696 74.6452 9.23345C74.6452 10.8957 75.9133 12.2666 77.6269 12.2666C78.9292 12.2666 79.8717 11.4954 80.3344 10.3987L82.4079 11.2898C81.6196 13.1405 79.9231 14.4429 77.5926 14.4429Z" fill="#FCFCFD"/>
<path d="M88.0681 14.4429C85.1721 14.4429 82.8758 12.1123 82.8758 9.23345C82.8758 6.30316 85.1721 4.0069 88.0681 4.0069C90.947 4.0069 93.2604 6.30316 93.2604 9.23345C93.2604 12.1123 90.947 14.4429 88.0681 14.4429ZM88.0681 12.2666C89.7132 12.2666 90.9812 10.8957 90.9812 9.23345C90.9812 7.53696 89.7132 6.1832 88.0681 6.1832C86.4059 6.1832 85.1549 7.53696 85.1549 9.23345C85.1549 10.8957 86.4059 12.2666 88.0681 12.2666Z" fill="#FCFCFD"/>
<path d="M98.0497 14.4429C95.8048 14.4429 94.3997 13.5861 93.5942 12.0095L95.7363 10.9813C96.2161 11.9238 97.0558 12.4379 98.1525 12.4379C99.3006 12.4379 99.8661 11.8896 99.8661 11.2213C99.8661 10.4844 98.7523 10.3473 97.5184 10.0731C95.8048 9.71327 94.0055 9.16491 94.0055 7.05715C94.0055 5.44634 95.5649 3.98976 97.9468 3.98976C99.9861 3.98976 101.271 4.77803 102.042 6.06325L100.072 7.05715C99.6605 6.35457 98.9065 5.90902 97.9468 5.90902C96.8501 5.90902 96.336 6.42311 96.336 6.98861C96.336 7.65692 97.1243 7.82828 98.6323 8.15387C100.277 8.47946 102.162 9.06209 102.162 11.1698C102.162 12.575 100.911 14.4429 98.0497 14.4429Z" fill="#FCFCFD"/>
<path d="M30.1037 28.5174V16.008H32.4342V26.2897H37.0096V28.5174H30.1037Z" fill="#FCFCFD"/>
<path d="M42.9181 28.7231C40.0221 28.7231 37.7258 26.3925 37.7258 23.5136C37.7258 20.5833 40.0221 18.2871 42.9181 18.2871C45.797 18.2871 48.1104 20.5833 48.1104 23.5136C48.1104 26.3925 45.797 28.7231 42.9181 28.7231ZM42.9181 26.5468C44.5632 26.5468 45.8313 25.1759 45.8313 23.5136C45.8313 21.8172 44.5632 20.4634 42.9181 20.4634C41.2559 20.4634 40.005 21.8172 40.005 23.5136C40.005 25.1759 41.2559 26.5468 42.9181 26.5468Z" fill="#FCFCFD"/>
<path d="M57.0961 28.3461V27.1808C56.3592 28.1404 55.1768 28.7231 53.8231 28.7231C51.4068 28.7231 48.8878 26.8038 48.8878 23.5136C48.8878 20.1892 51.3212 18.2871 53.8573 18.2871C55.1768 18.2871 56.3421 18.8697 57.0789 19.7779V18.4927H59.3923V28.2604C59.3923 31.0707 57.593 33.367 54.2172 33.367C51.6125 33.367 49.9845 32.1503 49.0763 30.4881L51.1327 29.2371C51.8695 30.5909 52.6578 31.2421 54.2515 31.2421C55.9994 31.2421 57.0961 29.8712 57.0961 28.3461ZM54.2001 26.5982C55.9308 26.5982 57.1989 25.2101 57.1989 23.4794C57.1989 21.7657 55.9308 20.3948 54.2001 20.3948C52.4864 20.3948 51.1669 21.7486 51.1669 23.4794C51.1669 25.2273 52.4864 26.5982 54.2001 26.5982Z" fill="#FCFCFD"/>
<path d="M60.6599 28.5174V18.4927H62.9904V28.5174H60.6599ZM60.3686 16.0422C60.3686 15.1683 60.9341 14.5857 61.8251 14.5857C62.7334 14.5857 63.2817 15.1683 63.2817 16.0422C63.2817 16.9162 62.7334 17.4817 61.8251 17.4817C60.8827 17.4817 60.3686 16.9162 60.3686 16.0422Z" fill="#FCFCFD"/>
<path d="M68.0947 28.7231C65.8499 28.7231 64.4447 27.8662 63.6393 26.2897L65.7813 25.2615C66.2612 26.204 67.1008 26.7181 68.1975 26.7181C69.3457 26.7181 69.9112 26.1698 69.9112 25.5014C69.9112 24.7646 68.7973 24.6275 67.5635 24.3533C65.8499 23.9935 64.0506 23.4451 64.0506 21.3373C64.0506 19.7265 65.61 18.27 67.9919 18.27C70.0311 18.27 71.3163 19.0582 72.0875 20.3434L70.1168 21.3373C69.7055 20.6348 68.9515 20.1892 67.9919 20.1892C66.8952 20.1892 66.3811 20.7033 66.3811 21.2688C66.3811 21.9371 67.1694 22.1085 68.6774 22.4341C70.3224 22.7596 72.2074 23.3423 72.2074 25.45C72.2074 26.8552 70.9565 28.7231 68.0947 28.7231Z" fill="#FCFCFD"/>
<path d="M72.6669 20.5662V18.4927H74.3805V16.9676L76.711 15.3739V18.4927H78.7503V20.5662H76.711V24.319C76.711 26.0669 76.9681 26.3411 78.7503 26.3411V28.5174H78.4247C75.323 28.5174 74.3805 27.5235 74.3805 24.3362V20.5662H72.6669Z" fill="#FCFCFD"/>
<path d="M79.8712 28.5174V18.4927H82.2017V28.5174H79.8712ZM79.5799 16.0422C79.5799 15.1683 80.1454 14.5857 81.0365 14.5857C81.9447 14.5857 82.493 15.1683 82.493 16.0422C82.493 16.9162 81.9447 17.4817 81.0365 17.4817C80.094 17.4817 79.5799 16.9162 79.5799 16.0422Z" fill="#FCFCFD"/>
<path d="M88.4199 28.7231C85.4896 28.7231 83.2105 26.3925 83.2105 23.5136C83.2105 20.5833 85.4896 18.2871 88.4199 18.2871C90.6648 18.2871 92.4298 19.5723 93.2009 21.3888L91.1274 22.2627C90.6648 21.166 89.6709 20.4634 88.437 20.4634C86.7406 20.4634 85.4725 21.8172 85.4725 23.5136C85.4725 25.1759 86.7406 26.5468 88.4542 26.5468C89.7565 26.5468 90.699 25.7756 91.1617 24.6789L93.2352 25.57C92.4469 27.4207 90.7504 28.7231 88.4199 28.7231Z" fill="#FCFCFD"/>
<path d="M98.0497 28.7231C95.8048 28.7231 94.3997 27.8662 93.5942 26.2897L95.7363 25.2615C96.2161 26.204 97.0558 26.7181 98.1525 26.7181C99.3006 26.7181 99.8661 26.1698 99.8661 25.5014C99.8661 24.7646 98.7523 24.6275 97.5184 24.3533C95.8048 23.9935 94.0055 23.4451 94.0055 21.3373C94.0055 19.7265 95.5649 18.27 97.9468 18.27C99.9861 18.27 101.271 19.0582 102.042 20.3434L100.072 21.3373C99.6605 20.6348 98.9065 20.1892 97.9468 20.1892C96.8501 20.1892 96.336 20.7033 96.336 21.2688C96.336 21.9371 97.1243 22.1085 98.6323 22.4341C100.277 22.7596 102.162 23.3423 102.162 25.45C102.162 26.8552 100.911 28.7231 98.0497 28.7231Z" fill="#FCFCFD"/>
</svg>
