<svg width="24" height="24" viewBox="0 0 24 24" fill="none" xmlns="http://www.w3.org/2000/svg">
<path fill-rule="evenodd" clip-rule="evenodd" d="M12 22C15.866 22 19 18.866 19 15C19 11.134 15.866 8 12 8C8.13401 8 5 11.134 5 15C5 18.866 8.13401 22 12 22ZM12 24C16.9706 24 21 19.9706 21 15C21 10.0294 16.9706 6 12 6C7.02944 6 3 10.0294 3 15C3 19.9706 7.02944 24 12 24Z" fill="#777E91"/>
<path fill-rule="evenodd" clip-rule="evenodd" d="M8.85428 3C7.36752 3 6.40053 4.56462 7.06543 5.89443L7.89461 7.55279C8.1416 8.04676 7.94137 8.64744 7.44739 8.89443C6.95342 9.14142 6.35274 8.94119 6.10575 8.44721L5.27657 6.78885C3.94677 4.12925 5.88075 1 8.85428 1H15.1461C18.1196 1 20.0536 4.12925 18.7238 6.78885L17.8946 8.44721C17.6476 8.94119 17.0469 9.14142 16.553 8.89443C16.059 8.64744 15.8588 8.04677 16.1058 7.55279L16.9349 5.89443C17.5998 4.56462 16.6328 3 15.1461 3H8.85428Z" fill="#777E91"/>
</svg>
