<svg width="24" height="24" viewBox="0 0 24 24" fill="none" xmlns="http://www.w3.org/2000/svg">
<path d="M8 14.9999V13.4141C8 12.5232 9.07714 12.077 9.70711 12.707L11.2929 14.2928C11.9229 14.9228 11.4767 15.9999 10.5858 15.9999H9C8.44772 15.9999 8 15.5522 8 14.9999Z" fill="#777E91"/>
<path d="M3 8C2.44772 8 2 8.44772 2 9C2 9.55228 2.44772 10 3 10H5C5.55228 10 6 9.55228 6 9C6 8.44772 5.55228 8 5 8H3Z" fill="#777E91"/>
<path d="M3 14C2.44772 14 2 14.4477 2 15C2 15.5523 2.44772 16 3 16H5C5.55228 16 6 15.5523 6 15C6 14.4477 5.55228 14 5 14H3Z" fill="#777E91"/>
<path d="M9 22C8.44772 22 8 21.5523 8 21V19C8 18.4477 8.44771 18 9 18C9.55228 18 10 18.4477 10 19V21C10 21.5523 9.55228 22 9 22Z" fill="#777E91"/>
<path d="M14 21C14 21.5523 14.4477 22 15 22C15.5523 22 16 21.5523 16 21V19C16 18.4477 15.5523 18 15 18C14.4477 18 14 18.4477 14 19V21Z" fill="#777E91"/>
<path fill-rule="evenodd" clip-rule="evenodd" d="M4 5.24283V19.0002C4 19.5525 4.44772 20.0002 5 20.0002H18.7574C19.6483 20.0002 20.0944 18.923 19.4645 18.2931L5.70711 4.53572C5.07714 3.90576 4 4.35193 4 5.24283ZM2 5.24283V19.0002C2 20.657 3.34315 22.0002 5 22.0002H18.7574C21.4301 22.0002 22.7686 18.7688 20.8787 16.8789L7.12132 3.12151C5.23143 1.23162 2 2.57011 2 5.24283Z" fill="#777E91"/>
</svg>
